<mxfile host="65bd71144e">
    <diagram id="woWa4LBUNQJElBh8vP1a" name="PÃ¡gina-1">
        <mxGraphModel dx="674" dy="292" grid="1" gridSize="10" guides="1" tooltips="1" connect="1" arrows="1" fold="1" page="1" pageScale="1" pageWidth="827" pageHeight="1169" math="0" shadow="0">
            <root>
                <mxCell id="0"/>
                <mxCell id="1" parent="0"/>
                <mxCell id="2" value="" style="ellipse;whiteSpace=wrap;html=1;aspect=fixed;fillColor=#CCE5FF;strokeColor=#99CCFF;" vertex="1" parent="1">
                    <mxGeometry x="250" width="140" height="140" as="geometry"/>
                </mxCell>
            </root>
        </mxGraphModel>
    </diagram>
</mxfile>